<mxfile host="app.diagrams.net" modified="2023-06-13T10:21:45.887Z" agent="Mozilla/5.0 (Macintosh; Intel Mac OS X 10_15_7) AppleWebKit/537.36 (KHTML, like Gecko) Chrome/114.0.0.0 Safari/537.36" etag="XoM6LibAy26_EwkUoilq" version="21.3.7" type="github">
  <diagram name="Page-1" id="nM72WajhEa3cOTkmUVcP">
    <mxGraphModel dx="1194" dy="648" grid="1" gridSize="10" guides="1" tooltips="1" connect="1" arrows="1" fold="1" page="1" pageScale="1" pageWidth="850" pageHeight="1100" math="0" shadow="0">
      <root>
        <mxCell id="0" />
        <mxCell id="1" parent="0" />
        <mxCell id="abmXcivrycV-v_4Pk3xf-1" value="Mitra Native App" style="shape=umlLifeline;perimeter=lifelinePerimeter;whiteSpace=wrap;html=1;container=1;dropTarget=0;collapsible=0;recursiveResize=0;outlineConnect=0;portConstraint=eastwest;newEdgeStyle={&quot;edgeStyle&quot;:&quot;elbowEdgeStyle&quot;,&quot;elbow&quot;:&quot;vertical&quot;,&quot;curved&quot;:0,&quot;rounded&quot;:0};" parent="1" vertex="1">
          <mxGeometry x="90" y="50" width="100" height="590" as="geometry" />
        </mxCell>
        <mxCell id="abmXcivrycV-v_4Pk3xf-2" value="Mitra UI" style="shape=umlLifeline;perimeter=lifelinePerimeter;whiteSpace=wrap;html=1;container=1;dropTarget=0;collapsible=0;recursiveResize=0;outlineConnect=0;portConstraint=eastwest;newEdgeStyle={&quot;edgeStyle&quot;:&quot;elbowEdgeStyle&quot;,&quot;elbow&quot;:&quot;vertical&quot;,&quot;curved&quot;:0,&quot;rounded&quot;:0};" parent="1" vertex="1">
          <mxGeometry x="270" y="50" width="100" height="590" as="geometry" />
        </mxCell>
        <mxCell id="abmXcivrycV-v_4Pk3xf-3" value="Insurance BE&amp;nbsp;" style="shape=umlLifeline;perimeter=lifelinePerimeter;whiteSpace=wrap;html=1;container=1;dropTarget=0;collapsible=0;recursiveResize=0;outlineConnect=0;portConstraint=eastwest;newEdgeStyle={&quot;edgeStyle&quot;:&quot;elbowEdgeStyle&quot;,&quot;elbow&quot;:&quot;vertical&quot;,&quot;curved&quot;:0,&quot;rounded&quot;:0};" parent="1" vertex="1">
          <mxGeometry x="420" y="50" width="100" height="590" as="geometry" />
        </mxCell>
        <mxCell id="abmXcivrycV-v_4Pk3xf-4" value="IL Service" style="shape=umlLifeline;perimeter=lifelinePerimeter;whiteSpace=wrap;html=1;container=1;dropTarget=0;collapsible=0;recursiveResize=0;outlineConnect=0;portConstraint=eastwest;newEdgeStyle={&quot;edgeStyle&quot;:&quot;elbowEdgeStyle&quot;,&quot;elbow&quot;:&quot;vertical&quot;,&quot;curved&quot;:0,&quot;rounded&quot;:0};" parent="1" vertex="1">
          <mxGeometry x="590" y="50" width="100" height="580" as="geometry" />
        </mxCell>
        <mxCell id="abmXcivrycV-v_4Pk3xf-5" value="" style="endArrow=open;endFill=1;endSize=12;html=1;rounded=0;" parent="1" target="abmXcivrycV-v_4Pk3xf-3" edge="1">
          <mxGeometry width="160" relative="1" as="geometry">
            <mxPoint x="320" y="121" as="sourcePoint" />
            <mxPoint x="500" y="340" as="targetPoint" />
          </mxGeometry>
        </mxCell>
        <mxCell id="abmXcivrycV-v_4Pk3xf-26" value="&lt;font style=&quot;font-size: 10px;&quot;&gt;Fetch details by pan number&lt;br&gt;/&lt;a style=&quot;border-color: var(--border-color); color: rgb(0, 82, 204); text-decoration: var(--aui-link-decoration); font-family: -apple-system, &amp;quot;system-ui&amp;quot;, &amp;quot;Segoe UI&amp;quot;, Roboto, Oxygen, Ubuntu, &amp;quot;Fira Sans&amp;quot;, &amp;quot;Droid Sans&amp;quot;, &amp;quot;Helvetica Neue&amp;quot;, sans-serif; text-align: left;&quot; rel=&quot;nofollow&quot; class=&quot;external-link&quot; href=&quot;https://10.56.110.178:8093/api/v1/insurance/twoWheeler/mitra/ckycSearch&quot;&gt;ckycSearch&lt;/a&gt;&lt;/font&gt;" style="edgeLabel;html=1;align=center;verticalAlign=middle;resizable=0;points=[];" parent="abmXcivrycV-v_4Pk3xf-5" vertex="1" connectable="0">
          <mxGeometry x="-0.4114" y="-2" relative="1" as="geometry">
            <mxPoint x="31" y="17" as="offset" />
          </mxGeometry>
        </mxCell>
        <mxCell id="abmXcivrycV-v_4Pk3xf-6" value="" style="endArrow=open;endFill=1;endSize=12;html=1;rounded=0;" parent="1" source="abmXcivrycV-v_4Pk3xf-1" target="abmXcivrycV-v_4Pk3xf-2" edge="1">
          <mxGeometry width="160" relative="1" as="geometry">
            <mxPoint x="340" y="340" as="sourcePoint" />
            <mxPoint x="500" y="340" as="targetPoint" />
            <Array as="points">
              <mxPoint x="230" y="100" />
            </Array>
          </mxGeometry>
        </mxCell>
        <mxCell id="abmXcivrycV-v_4Pk3xf-7" value="" style="endArrow=open;endFill=1;endSize=12;html=1;rounded=0;" parent="1" source="abmXcivrycV-v_4Pk3xf-3" target="abmXcivrycV-v_4Pk3xf-4" edge="1">
          <mxGeometry width="160" relative="1" as="geometry">
            <mxPoint x="340" y="340" as="sourcePoint" />
            <mxPoint x="500" y="340" as="targetPoint" />
            <Array as="points">
              <mxPoint x="560" y="140" />
            </Array>
          </mxGeometry>
        </mxCell>
        <mxCell id="abmXcivrycV-v_4Pk3xf-9" value="return" style="html=1;verticalAlign=bottom;endArrow=open;dashed=1;endSize=8;edgeStyle=elbowEdgeStyle;elbow=vertical;curved=0;rounded=0;" parent="1" source="abmXcivrycV-v_4Pk3xf-3" target="abmXcivrycV-v_4Pk3xf-2" edge="1">
          <mxGeometry relative="1" as="geometry">
            <mxPoint x="460" y="340" as="sourcePoint" />
            <mxPoint x="380" y="340" as="targetPoint" />
            <Array as="points">
              <mxPoint x="400" y="190" />
            </Array>
          </mxGeometry>
        </mxCell>
        <mxCell id="abmXcivrycV-v_4Pk3xf-10" value="return" style="html=1;verticalAlign=bottom;endArrow=open;dashed=1;endSize=8;edgeStyle=elbowEdgeStyle;elbow=vertical;curved=0;rounded=0;" parent="1" source="abmXcivrycV-v_4Pk3xf-4" target="abmXcivrycV-v_4Pk3xf-3" edge="1">
          <mxGeometry relative="1" as="geometry">
            <mxPoint x="460" y="340" as="sourcePoint" />
            <mxPoint x="380" y="340" as="targetPoint" />
            <Array as="points">
              <mxPoint x="560" y="170" />
            </Array>
          </mxGeometry>
        </mxCell>
        <mxCell id="abmXcivrycV-v_4Pk3xf-11" value="Option 2" style="shape=umlFrame;whiteSpace=wrap;html=1;pointerEvents=0;" parent="1" vertex="1">
          <mxGeometry x="260" y="230" width="490" height="110" as="geometry" />
        </mxCell>
        <mxCell id="abmXcivrycV-v_4Pk3xf-12" value="" style="endArrow=open;endFill=1;endSize=12;html=1;rounded=0;" parent="1" edge="1">
          <mxGeometry width="160" relative="1" as="geometry">
            <mxPoint x="320" y="260" as="sourcePoint" />
            <mxPoint x="470" y="260" as="targetPoint" />
          </mxGeometry>
        </mxCell>
        <mxCell id="abmXcivrycV-v_4Pk3xf-25" value="Fetch Details by aadhar number&lt;br&gt;/&lt;a style=&quot;border-color: var(--border-color); font-size: 10px; color: rgb(0, 82, 204); text-decoration: var(--aui-link-decoration); font-family: -apple-system, &amp;quot;system-ui&amp;quot;, &amp;quot;Segoe UI&amp;quot;, Roboto, Oxygen, Ubuntu, &amp;quot;Fira Sans&amp;quot;, &amp;quot;Droid Sans&amp;quot;, &amp;quot;Helvetica Neue&amp;quot;, sans-serif; text-align: left;&quot; rel=&quot;nofollow&quot; class=&quot;external-link&quot; href=&quot;https://10.56.110.178:8093/api/v1/insurance/twoWheeler/mitra/ckycSearch&quot;&gt;ckycSearch&lt;/a&gt;" style="edgeLabel;html=1;align=center;verticalAlign=middle;resizable=0;points=[];" parent="abmXcivrycV-v_4Pk3xf-12" vertex="1" connectable="0">
          <mxGeometry x="-0.3067" relative="1" as="geometry">
            <mxPoint x="8" y="20" as="offset" />
          </mxGeometry>
        </mxCell>
        <mxCell id="abmXcivrycV-v_4Pk3xf-13" value="" style="endArrow=open;endFill=1;endSize=12;html=1;rounded=0;" parent="1" edge="1">
          <mxGeometry width="160" relative="1" as="geometry">
            <mxPoint x="470" y="279" as="sourcePoint" />
            <mxPoint x="640" y="279" as="targetPoint" />
            <Array as="points">
              <mxPoint x="560" y="279" />
            </Array>
          </mxGeometry>
        </mxCell>
        <mxCell id="abmXcivrycV-v_4Pk3xf-14" value="return" style="html=1;verticalAlign=bottom;endArrow=open;dashed=1;endSize=8;edgeStyle=elbowEdgeStyle;elbow=vertical;curved=0;rounded=0;" parent="1" edge="1">
          <mxGeometry relative="1" as="geometry">
            <mxPoint x="470" y="329" as="sourcePoint" />
            <mxPoint x="320" y="329" as="targetPoint" />
            <Array as="points">
              <mxPoint x="400" y="329" />
            </Array>
          </mxGeometry>
        </mxCell>
        <mxCell id="abmXcivrycV-v_4Pk3xf-15" value="return" style="html=1;verticalAlign=bottom;endArrow=open;dashed=1;endSize=8;edgeStyle=elbowEdgeStyle;elbow=vertical;curved=0;rounded=0;" parent="1" edge="1">
          <mxGeometry relative="1" as="geometry">
            <mxPoint x="640" y="309" as="sourcePoint" />
            <mxPoint x="470" y="309" as="targetPoint" />
            <Array as="points">
              <mxPoint x="560" y="309" />
            </Array>
          </mxGeometry>
        </mxCell>
        <mxCell id="abmXcivrycV-v_4Pk3xf-16" value="Option 3" style="shape=umlFrame;whiteSpace=wrap;html=1;pointerEvents=0;" parent="1" vertex="1">
          <mxGeometry x="40" y="360" width="710" height="140" as="geometry" />
        </mxCell>
        <mxCell id="abmXcivrycV-v_4Pk3xf-17" value="" style="endArrow=open;endFill=1;endSize=12;html=1;rounded=0;" parent="1" edge="1">
          <mxGeometry width="160" relative="1" as="geometry">
            <mxPoint x="320" y="420" as="sourcePoint" />
            <mxPoint x="470" y="420" as="targetPoint" />
          </mxGeometry>
        </mxCell>
        <mxCell id="abmXcivrycV-v_4Pk3xf-27" value="Fetch details by aadhar doc upload&lt;br&gt;/ckycDocumentUpload" style="edgeLabel;html=1;align=center;verticalAlign=middle;resizable=0;points=[];" parent="abmXcivrycV-v_4Pk3xf-17" vertex="1" connectable="0">
          <mxGeometry x="-0.36" y="1" relative="1" as="geometry">
            <mxPoint x="52" y="-19" as="offset" />
          </mxGeometry>
        </mxCell>
        <mxCell id="abmXcivrycV-v_4Pk3xf-18" value="" style="endArrow=open;endFill=1;endSize=12;html=1;rounded=0;" parent="1" edge="1">
          <mxGeometry width="160" relative="1" as="geometry">
            <mxPoint x="470" y="429" as="sourcePoint" />
            <mxPoint x="640" y="429" as="targetPoint" />
            <Array as="points">
              <mxPoint x="560" y="429" />
            </Array>
          </mxGeometry>
        </mxCell>
        <mxCell id="abmXcivrycV-v_4Pk3xf-19" value="return" style="html=1;verticalAlign=bottom;endArrow=open;dashed=1;endSize=8;edgeStyle=elbowEdgeStyle;elbow=vertical;curved=0;rounded=0;" parent="1" edge="1">
          <mxGeometry relative="1" as="geometry">
            <mxPoint x="470" y="479" as="sourcePoint" />
            <mxPoint x="320" y="479" as="targetPoint" />
            <Array as="points">
              <mxPoint x="400" y="479" />
            </Array>
          </mxGeometry>
        </mxCell>
        <mxCell id="abmXcivrycV-v_4Pk3xf-20" value="return" style="html=1;verticalAlign=bottom;endArrow=open;dashed=1;endSize=8;edgeStyle=elbowEdgeStyle;elbow=vertical;curved=0;rounded=0;" parent="1" edge="1">
          <mxGeometry relative="1" as="geometry">
            <mxPoint x="640" y="459" as="sourcePoint" />
            <mxPoint x="470" y="459" as="targetPoint" />
            <Array as="points">
              <mxPoint x="560" y="459" />
            </Array>
          </mxGeometry>
        </mxCell>
        <mxCell id="abmXcivrycV-v_4Pk3xf-21" value="" style="endArrow=open;endFill=1;endSize=12;html=1;rounded=0;" parent="1" source="abmXcivrycV-v_4Pk3xf-2" target="abmXcivrycV-v_4Pk3xf-1" edge="1">
          <mxGeometry width="160" relative="1" as="geometry">
            <mxPoint x="340" y="340" as="sourcePoint" />
            <mxPoint x="500" y="340" as="targetPoint" />
            <Array as="points">
              <mxPoint x="210" y="380" />
            </Array>
          </mxGeometry>
        </mxCell>
        <mxCell id="abmXcivrycV-v_4Pk3xf-24" value="invoke call to open camera" style="edgeLabel;html=1;align=center;verticalAlign=middle;resizable=0;points=[];" parent="abmXcivrycV-v_4Pk3xf-21" vertex="1" connectable="0">
          <mxGeometry x="0.4833" y="-1" relative="1" as="geometry">
            <mxPoint x="44" as="offset" />
          </mxGeometry>
        </mxCell>
        <mxCell id="abmXcivrycV-v_4Pk3xf-22" value="return Image(1 MB image limit)" style="html=1;verticalAlign=bottom;endArrow=open;dashed=1;endSize=8;edgeStyle=elbowEdgeStyle;elbow=vertical;curved=0;rounded=0;" parent="1" source="abmXcivrycV-v_4Pk3xf-1" target="abmXcivrycV-v_4Pk3xf-2" edge="1">
          <mxGeometry x="-0.1056" y="-20" relative="1" as="geometry">
            <mxPoint x="460" y="340" as="sourcePoint" />
            <mxPoint x="380" y="340" as="targetPoint" />
            <Array as="points">
              <mxPoint x="200" y="400" />
            </Array>
            <mxPoint x="1" as="offset" />
          </mxGeometry>
        </mxCell>
        <mxCell id="abmXcivrycV-v_4Pk3xf-30" value="" style="endArrow=open;endFill=1;endSize=12;html=1;rounded=0;" parent="1" source="abmXcivrycV-v_4Pk3xf-2" target="abmXcivrycV-v_4Pk3xf-3" edge="1">
          <mxGeometry width="160" relative="1" as="geometry">
            <mxPoint x="340" y="340" as="sourcePoint" />
            <mxPoint x="640" y="550" as="targetPoint" />
            <Array as="points">
              <mxPoint x="370" y="550" />
              <mxPoint x="440" y="550" />
            </Array>
          </mxGeometry>
        </mxCell>
        <mxCell id="abmXcivrycV-v_4Pk3xf-31" value="Use CKYC ID&lt;br&gt;/v1/2w/generateProposal" style="edgeLabel;html=1;align=center;verticalAlign=middle;resizable=0;points=[];" parent="abmXcivrycV-v_4Pk3xf-30" vertex="1" connectable="0">
          <mxGeometry x="-0.1298" y="2" relative="1" as="geometry">
            <mxPoint x="17" y="22" as="offset" />
          </mxGeometry>
        </mxCell>
        <mxCell id="-QQGywvAsF0SgDkDxXoo-1" value="Option 1" style="shape=umlFrame;whiteSpace=wrap;html=1;pointerEvents=0;" vertex="1" parent="1">
          <mxGeometry x="260" y="110" width="490" height="110" as="geometry" />
        </mxCell>
        <mxCell id="-QQGywvAsF0SgDkDxXoo-2" value="" style="endArrow=open;endFill=1;endSize=12;html=1;rounded=0;" edge="1" parent="1" source="abmXcivrycV-v_4Pk3xf-3" target="abmXcivrycV-v_4Pk3xf-4">
          <mxGeometry width="160" relative="1" as="geometry">
            <mxPoint x="340" y="310" as="sourcePoint" />
            <mxPoint x="500" y="310" as="targetPoint" />
            <Array as="points">
              <mxPoint x="550" y="590" />
            </Array>
          </mxGeometry>
        </mxCell>
        <mxCell id="-QQGywvAsF0SgDkDxXoo-3" value="Call IL proposal API" style="edgeLabel;html=1;align=center;verticalAlign=middle;resizable=0;points=[];" vertex="1" connectable="0" parent="-QQGywvAsF0SgDkDxXoo-2">
          <mxGeometry x="-0.3235" y="2" relative="1" as="geometry">
            <mxPoint x="23" y="-8" as="offset" />
          </mxGeometry>
        </mxCell>
        <mxCell id="-QQGywvAsF0SgDkDxXoo-4" value="return" style="html=1;verticalAlign=bottom;endArrow=open;dashed=1;endSize=8;edgeStyle=elbowEdgeStyle;elbow=vertical;curved=0;rounded=0;" edge="1" parent="1" source="abmXcivrycV-v_4Pk3xf-4" target="abmXcivrycV-v_4Pk3xf-3">
          <mxGeometry relative="1" as="geometry">
            <mxPoint x="460" y="310" as="sourcePoint" />
            <mxPoint x="380" y="310" as="targetPoint" />
            <Array as="points">
              <mxPoint x="540" y="610" />
              <mxPoint x="490" y="630" />
            </Array>
          </mxGeometry>
        </mxCell>
        <mxCell id="-QQGywvAsF0SgDkDxXoo-5" value="Show propsal to customer" style="html=1;verticalAlign=bottom;endArrow=open;dashed=1;endSize=8;edgeStyle=elbowEdgeStyle;elbow=vertical;curved=0;rounded=0;" edge="1" parent="1" source="abmXcivrycV-v_4Pk3xf-3" target="abmXcivrycV-v_4Pk3xf-2">
          <mxGeometry relative="1" as="geometry">
            <mxPoint x="440" y="630" as="sourcePoint" />
            <mxPoint x="360" y="630" as="targetPoint" />
            <Array as="points">
              <mxPoint x="380" y="630" />
            </Array>
          </mxGeometry>
        </mxCell>
      </root>
    </mxGraphModel>
  </diagram>
</mxfile>
